PathFileType	3	(X/Y/Z)	F:\ViconData\AntennenMessung\Messung1\Session1\ID19.trc
DataRate	CameraRate	NumFrames	NumMarkers	Units	OrigDataRate	OrigDataStartFrame	OrigNumFrames
120.0	120.0	6	70	mm	120.0	236	942	
Frame#	Time	Ashort			Along			Atop			A4			Bshort			Blong			Btop			B4			Cshort			Clong			Ctop			C4			Dshort			Dlong			Dtop			D4			Eshort			Elong			Etop			E4			Fshort			Flong			Ftop			F4			Gshort			Glong			Gtop			G4			Hshort			Hlong			Htop			H4			I1			I2			I3			I4			I5			WandAshort			WandAlong			WandAtop			WandA4			WandA15			WandBshort			WandB4			WandB5			WandBtop			WandBlong			WandCshort			WandClong			WandCtop			WandC4			WandC5			Acenter			Aantenna			Bcenter			Bantenna			Ccenter			Cantenna			Dcenter			Dantenna			Ecenter			Eantenna			Fcenter			Fantenna			Gcenter			Gantenna			Hcenter			Hantenna			Icenter			Iantenna			
		X1	Y1	Z1	X2	Y2	Z2	X3	Y3	Z3	X4	Y4	Z4	X5	Y5	Z5	X6	Y6	Z6	X7	Y7	Z7	X8	Y8	Z8	X9	Y9	Z9	X10	Y10	Z10	X11	Y11	Z11	X12	Y12	Z12	X13	Y13	Z13	X14	Y14	Z14	X15	Y15	Z15	X16	Y16	Z16	X17	Y17	Z17	X18	Y18	Z18	X19	Y19	Z19	X20	Y20	Z20	X21	Y21	Z21	X22	Y22	Z22	X23	Y23	Z23	X24	Y24	Z24	X25	Y25	Z25	X26	Y26	Z26	X27	Y27	Z27	X28	Y28	Z28	X29	Y29	Z29	X30	Y30	Z30	X31	Y31	Z31	X32	Y32	Z32	X33	Y33	Z33	X34	Y34	Z34	X35	Y35	Z35	X36	Y36	Z36	X37	Y37	Z37	X38	Y38	Z38	X39	Y39	Z39	X40	Y40	Z40	X41	Y41	Z41	X42	Y42	Z42	X43	Y43	Z43	X44	Y44	Z44	X45	Y45	Z45	X46	Y46	Z46	X47	Y47	Z47	X48	Y48	Z48	X49	Y49	Z49	X50	Y50	Z50	X51	Y51	Z51	X52	Y52	Z52	X53	Y53	Z53	X54	Y54	Z54	X55	Y55	Z55	X56	Y56	Z56	X57	Y57	Z57	X58	Y58	Z58	X59	Y59	Z59	X60	Y60	Z60	X61	Y61	Z61	X62	Y62	Z62	X63	Y63	Z63	X64	Y64	Z64	X65	Y65	Z65	X66	Y66	Z66	X67	Y67	Z67	X68	Y68	Z68	X69	Y69	Z69	X70	Y70	Z70	
236	1.9583333	-1038.2826	214.54245	-1644.2246	-1109.3978	204.04242	-1599.2771	-1064.0077	172.58112	-1625.3885	-1054.2114	262.22958	-1634.9563	-1353.0513	234.8206	1003.6201	-1281.3337	227.23862	1052.3762	-1322.7607	193.84001	1020.9563	-1284.7355	287.85663	1052.8096	813.87128	187.78619	1209.5299	892.69312	179.03114	1178.817	844.3172	145.63026	1198.2847	860.7019	292.44574	1167.6545	1115.6798	209.51636	-1401.6343	1056.0959	193.97978	-1460.3743	1095.1317	162.38113	-1423.9767	1069.8197	238.60634	-1425.8279	-1204.6353	1685.9917	-1563.0873	-1129.193	1688.2981	-1606.0436	-1173.2422	1724.3813	-1581.9106	-1134.0867	1580.9355	-1603.8394	-1239.5809	1699.1003	1119.4784	-1308.8821	1698.0427	1071.6619	-1270.4186	1736.3186	1096.8787	-1245.5101	1592.8297	1110.7267	988.86377	1664.1919	1162.2463	955.77844	1702.2736	1181.0186	922.7652	1661.9639	1215.0862	939.7688	1659.345	1159.8943	998.95819	1668.4403	-1579.4779	1058.6561	1669.926	-1518.6748	1024.9194	1708.0195	-1551.1379	1059.1935	1672.1349	-1585.4886	-186.3264	163.24693	-148.53854	-189.23189	171.76024	-64.526413	-186.91992	127.08813	-106.08466	-155.34673	168.03058	-111.66529	-236.15012	164.93575	-113.58644																																														-1069.1182	209.98962	-1624.7354	-1074.3962	248.62492	-1624.0609	-1321.5524	231.49054	1025.0341	-1320.309	270.24405	1029.2313	847.80981	184.01649	1196.3057	851.33905	222.80498	1194.3062	1088.7836	202.50314	-1428.1494	1082.7207	240.82231	-1432.1349	-1171.9712	1686.9901	-1581.6859	-1170.6462	1648.0133	-1581.4517	-1270.647	1698.6262	1098.0433	-1270.8832	1659.6455	1099.2479	953.53204	1704.8591	1182.2931	972.84027	1731.7787	1161.7134	1026.3434	1669.1218	-1551.5856	1027.7701	1630.1505	-1552.0342	-187.6534	167.13516	-110.16817	-188.36388	205.92754	-114.12375
237	1.9666667	-1038.2732	214.5097	-1644.2169	-1109.4286	204.0119	-1599.25	-1063.8525	173.0551	-1625.6204	-1054.2153	262.21832	-1634.936	-1353.0149	234.75197	1003.6962	-1281.3601	227.14488	1052.4519	-1322.8197	193.83769	1020.9473	-1284.7568	287.89456	1052.8634	813.82367	187.7724	1209.569	892.13538	178.45203	1179.3116	844.27332	145.65112	1198.2256	860.64886	292.53635	1167.468	1115.7147	209.7831	-1401.7894	1056.1342	194.02646	-1460.3978	1095.1383	162.50179	-1424.0601	1069.9767	238.78436	-1425.724	-1204.6233	1685.9989	-1563.0696	-1129.1937	1688.2454	-1606.0208	-1173.262	1724.3972	-1581.9159	-1134.0958	1580.9282	-1603.8281	-1239.6704	1699.2064	1119.5084	-1309.0715	1698.3346	1071.7601	-1270.4003	1736.2877	1096.8713	-1245.4965	1592.7764	1110.709	988.86273	1664.2021	1162.2312	955.82483	1702.3131	1181.0674	922.83136	1661.9949	1215.1002	939.78064	1659.3633	1159.8842	998.9707	1668.4264	-1579.4747	1058.6187	1669.9127	-1518.6808	1024.9122	1708.0212	-1551.1537	1059.1921	1672.1268	-1585.4988	-186.36859	163.36612	-148.51141	-189.23918	171.78537	-64.528648	-186.78445	127.17754	-106.13509	-155.3381	168.0394	-111.67426	-236.15576	164.92888	-113.59453																																														-1068.8456	209.99924	-1624.8964	-1074.0681	248.64056	-1624.1394	-1321.6248	231.41948	1025.0548	-1320.3926	270.16925	1029.2898	848.07147	183.69635	1196.3365	851.94092	222.45616	1194.4121	1088.7278	202.64616	-1428.3359	1082.6117	240.94696	-1432.4153	-1171.9951	1686.9706	-1581.6487	-1170.6759	1647.9939	-1581.3705	-1270.7787	1698.8156	1098.1057	-1271.1722	1659.8386	1099.3895	953.60785	1704.8704	1182.3312	972.92889	1731.787	1161.7595	1026.3282	1669.108	-1551.5916	1027.7463	1630.1362	-1552.03	-187.67882	167.20895	-110.17879	-188.54552	206.00191	-114.0974
238	1.975	-1038.261	214.50641	-1644.2065	-1109.4137	204.06136	-1599.2598	-1063.8934	172.59352	-1625.4393	-1054.1962	262.2287	-1634.9438	-1353.0985	234.76372	1003.8211	-1281.395	227.19675	1052.4269	-1322.8081	193.79491	1021.0073	-1284.7915	287.75525	1052.8969	813.91016	187.74983	1209.5566	892.3631	178.49472	1179.2267	844.34003	145.64053	1198.2295	860.66815	292.57068	1167.6528	1115.6777	209.4967	-1401.6182	1056.1921	194.04964	-1460.4166	1095.1072	162.50613	-1424.0038	1069.8481	238.63716	-1425.8026	-1204.621	1686.0093	-1563.0717	-1129.1924	1688.2804	-1606.0284	-1173.2471	1724.4015	-1581.9126	-1134.1028	1580.927	-1603.8115	-1239.6479	1699.2031	1119.5046	-1308.8835	1698.0895	1071.6802	-1270.3827	1736.2557	1096.8613	-1245.4886	1592.7975	1110.7112	988.83698	1664.1742	1162.2185	955.89722	1702.3405	1181.1348	922.82593	1661.9835	1215.1515	939.76349	1659.3898	1159.8678	998.96069	1668.4456	-1579.4928	1058.6217	1669.9159	-1518.6925	1024.9011	1708.0176	-1551.1591	1059.1937	1672.1278	-1585.5095	-186.30858	163.24161	-148.54327	-189.22368	171.78586	-64.532211	-186.79779	127.10223	-106.10855	-155.33253	168.04582	-111.69043	-236.15015	164.93236	-113.59331																																														-1068.9808	209.9968	-1624.8008	-1074.2363	248.63544	-1624.1414	-1321.6404	231.44388	1025.1456	-1320.4384	270.19196	1029.405	848.10065	183.71635	1196.3384	851.92938	222.48019	1194.4132	1088.8246	202.52359	-1428.1609	1082.8075	240.85036	-1432.1423	-1171.9779	1686.9921	-1581.6619	-1170.6555	1648.0154	-1581.4005	-1270.6346	1698.7046	1098.1007	-1270.8962	1659.7267	1099.3871	953.70972	1704.875	1182.3909	973.07947	1731.7758	1161.8442	1026.3201	1669.1199	-1551.6107	1027.7418	1630.1484	-1552.0634	-187.6387	167.14027	-110.20975	-188.45335	205.9288	-114.18296
239	1.9833333	-1038.2922	214.48218	-1644.2042	-1109.4276	204.06183	-1599.2439	-1063.9384	172.56351	-1625.4119	-1054.2106	262.27316	-1634.9711	-1352.9434	235.29637	1003.5159	-1281.363	227.16327	1052.4216	-1322.7881	193.78511	1021.0326	-1284.7682	287.85242	1052.8464	813.98157	187.71278	1209.476	892.22296	178.54378	1179.1865	844.34863	145.55902	1198.3607	860.67145	292.55783	1167.4484	1115.7153	209.78477	-1401.7856	1056.1199	193.97958	-1460.416	1095.141	162.40402	-1424.0029	1069.8383	238.65901	-1425.8177	-1204.6331	1686.0142	-1563.0667	-1129.1913	1688.2849	-1606.0443	-1173.2371	1724.3958	-1581.9231	-1134.1028	1580.9521	-1603.8434	-1239.6528	1699.1842	1119.5046	-1309.0367	1698.2688	1071.738	-1270.3966	1736.2697	1096.8751	-1245.5189	1592.8413	1110.7227	988.87708	1664.1965	1162.2504	955.91815	1702.2186	1181.0901	922.70026	1661.9718	1215.0778	939.80444	1659.3816	1159.8821	998.94769	1668.4457	-1579.5179	1058.6158	1669.9113	-1518.6819	1024.9064	1708.0215	-1551.1548	1059.1801	1672.1257	-1585.5083	-186.32652	163.2336	-148.541	-189.22061	171.80174	-64.52903	-186.74345	127.1105	-106.04882	-155.32843	168.05608	-111.68227	-236.15596	164.91806	-113.57114																																														-1069.0215	209.98074	-1624.7821	-1074.2708	248.62041	-1624.1318	-1321.2887	231.69971	1025.1432	-1319.7565	270.44254	1029.3436	848.02246	183.72357	1196.2977	851.75409	222.48805	1194.2025	1088.7321	202.62857	-1428.3319	1082.6299	240.92706	-1432.4537	-1171.9696	1686.9972	-1581.6742	-1170.6487	1648.0204	-1581.4148	-1270.7448	1698.7738	1098.0996	-1271.1069	1659.7964	1099.3727	953.57916	1704.9169	1182.427	972.95306	1731.8611	1161.9415	1026.3229	1669.118	-1551.6068	1027.7418	1630.1465	-1552.0598	-187.64856	167.14763	-110.16328	-188.52539	205.9335	-114.14916
240	1.9916667	-1038.2784	214.53969	-1644.2068	-1109.4045	204.06841	-1599.2828	-1063.8452	173.07593	-1625.6433	-1054.2097	262.28366	-1634.9958	-1352.8517	235.08653	1003.5262	-1281.2898	227.06857	1052.4631	-1322.7838	193.81046	1020.9863	-1284.7865	287.85522	1052.8831	813.87958	187.64345	1209.55	892.32397	178.41388	1179.3225	844.32092	145.53493	1198.389	860.64813	292.52209	1167.6095	1115.7161	209.76517	-1401.7819	1056.1523	194.02391	-1460.4213	1095.1251	162.4649	-1424.0143	1069.8779	238.66229	-1425.7814	-1204.5454	1685.9265	-1563.2094	-1129.1808	1688.2914	-1606.0366	-1173.2455	1724.401	-1581.9254	-1134.1036	1580.9479	-1603.8264	-1239.5643	1699.0901	1119.4714	-1308.9178	1698.1562	1071.7122	-1270.3982	1736.2745	1096.8696	-1245.6509	1592.9326	1110.7457	988.89893	1664.2186	1162.2623	955.71466	1702.2426	1180.967	922.81268	1661.9579	1215.0804	939.75336	1659.3389	1159.9153	998.93152	1668.4619	-1579.5345	1058.791	1670.1309	-1518.6777	1024.9076	1708.017	-1551.1611	1059.1982	1672.1221	-1585.5084	-186.38261	163.36716	-148.49959	-189.23845	171.78185	-64.513367	-186.77736	127.1944	-106.15179	-155.32524	168.05499	-111.70547	-236.08908	164.9166	-113.57117																																														-1068.8259	210.04245	-1624.9126	-1074.0327	248.68576	-1624.1489	-1321.3473	231.5567	1025.0701	-1319.8727	270.3027	1029.2621	848.0321	183.62515	1196.3896	851.80884	222.38847	1194.355	1088.7531	202.63948	-1428.3265	1082.6779	240.94337	-1432.4377	-1171.9579	1686.9491	-1581.7278	-1170.6179	1647.9727	-1581.522	-1270.6938	1698.6709	1098.0344	-1271.0005	1659.6908	1099.2419	953.44501	1704.8431	1182.2463	972.68488	1731.7788	1161.6237	1026.4214	1669.2281	-1551.5864	1027.9423	1630.2603	-1552.0138	-187.68523	167.20529	-110.1914	-188.56544	205.99814	-114.10803
241	2	-1038.2766	214.51871	-1644.2053	-1109.4174	204.01578	-1599.2799	-1063.9	172.60074	-1625.4312	-1054.2487	262.26697	-1634.96	-1352.9705	235.04007	1003.5291	-1281.4204	227.18843	1052.4651	-1322.7666	193.80122	1020.9525	-1284.752	287.8161	1052.8195	813.87347	187.784	1209.5448	892.32007	178.44128	1179.3186	844.2605	145.66263	1198.2971	860.73383	292.46021	1167.7877	1115.7047	209.77045	-1401.7893	1056.1127	193.90907	-1460.358	1095.1538	162.51637	-1424.019	1069.8853	238.65004	-1425.7842	-1204.6251	1686.0021	-1563.0677	-1129.2059	1688.2875	-1606.0333	-1173.251	1724.3944	-1581.9286	-1134.0929	1580.9418	-1603.8472	-1239.6304	1699.1552	1119.4862	-1308.9004	1698.1309	1071.6957	-1270.4036	1736.2855	1096.865	-1245.4713	1592.7509	1110.6938	988.88989	1664.2158	1162.2606	955.83618	1702.2584	1181.0499	922.85022	1661.9756	1215.0745	939.76263	1659.3903	1159.8748	998.95197	1668.4296	-1579.478	1058.6729	1669.9565	-1518.6979	1024.9056	1708.0304	-1551.1565	1059.1898	1672.1301	-1585.5031	-186.32863	163.23985	-148.54318	-189.24213	171.76634	-64.53196	-186.81088	127.09014	-106.06013	-155.32729	168.05049	-111.70706	-236.14412	164.91985	-113.57885																																														-1069.0157	209.98048	-1624.7935	-1074.3032	248.61478	-1624.1342	-1321.4491	231.58102	1025.0878	-1320.0979	270.3262	1029.3287	848.05176	183.71349	1196.3755	851.91364	222.47241	1194.4181	1088.713	202.5862	-1428.3173	1082.558	240.87778	-1432.4248	-1171.9706	1686.9916	-1581.6707	-1170.6364	1648.0153	-1581.402	-1270.6768	1698.696	1098.0667	-1270.9601	1659.7169	1099.313	953.58368	1704.851	1182.3303	972.88843	1731.7823	1161.7627	1026.3478	1669.1301	-1551.5962	1027.7925	1630.1593	-1552.0366	-187.65994	167.13605	-110.15392	-188.48241	205.92523	-114.11924
